<?xml version="1.0" encoding="UTF-8"?>
<svg width="1200pt" height="1200pt" version="1.1" viewBox="0 0 1200 1200" xmlns="http://www.w3.org/2000/svg">
 <defs>
  <clipPath id="a">
   <path d="m333 223h532v754.86h-532z"/>
  </clipPath>
 </defs>
 <g clip-path="url(#a)">
  <path d="m377.21 978.8h443.66c24.207 0 43.883-19.68 43.883-43.883v-667.95c0-24.207-19.68-43.883-43.883-43.883h-443.66c-24.199 0-43.883 19.68-43.883 43.883v667.95c-0.003906 24.207 19.676 43.887 43.883 43.887zm436.63-50.922h-429.59v-653.88h429.59z"/>
 </g>
 <path d="m505.01 613.26c1.1406-2.2578 2.0781-6.1758 2.0781-8.707v-159.18c0-2.5312 2.0703-4.6094 4.6094-4.6094h173.29c2.5312 0 4.6016 2.0703 4.6016 4.6094v237.02c0 2.5312-0.89844 6.4688-2.0195 8.7422l-31.617 65.148c-1.1094 2.2656-2.0469 4.0117-2.0703 3.875-0.039062-0.15234-0.23438 0.066406-0.45312 0.49219-0.21094 0.41406-2.4492 0.76172-4.9805 0.76172h-151.26c-2.5391 0-5.418-1.9062-6.4141-4.2461l-25.074-59.035c-0.98828-2.3438-0.86328-6.0977 0.28906-8.3438zm111.2 56.82c2.5312 0 5.3945-1.9102 6.3711-4.2695l20.172-48.723c0.96875-2.3516-0.30859-4.2617-2.8398-4.2617h-94.738c-2.5391 0-5.5781 1.8359-6.75 4.082l-25.77 49.09c-1.1719 2.2539-0.066406 4.0898 2.4648 4.0898h101.09zm-59.406-190.7c-2.5312 0-11.102 12.055-13.98 28.285-4.6094 25.914-3.9297 74.039-3.9297 74.137 0 0.089843 2.0703 0.16016 4.6016 0.16016h102.85c2.5391 0 4.6094-2.0625 4.6094-4.6016l0.003907-93.379c0-2.5391-2.0703-4.6094-4.6094-4.6094h-89.547zm66.293 253.86c2.5391 0 3.9062-1.9492 3.0234-4.332l-8.6016-23.645c-0.88281-2.3945-3.6484-4.3438-6.1875-4.3438h-106.27c-2.5312 0-3.793 1.9102-2.7891 4.2383l10.238 23.844c1.0039 2.3281 3.8828 4.2383 6.4219 4.2383z"/>
</svg>
